<svg xmlns="http://www.w3.org/2000/svg" viewBox="0 0 512 512" width="512" height="512">
  <circle cx="256" cy="256" r="256" fill="#1db954"/>
  <path d="M256 96c-88.37 0-160 71.63-160 160s71.63 160 160 160 160-71.63 160-160S344.37 96 256 96zm73.6 230.4c-2.88 4.72-8.96 6.24-13.6 3.36-37.28-22.72-84.16-27.84-139.36-15.28-5.28 1.28-10.56-2.08-11.84-7.36-1.28-5.28 2.08-10.56 7.36-11.84 60.48-13.92 112.32-7.84 154.24 17.76 4.72 2.72 6.24 8.8 3.2 13.36zm19.36-43.04c-3.52 5.76-11.04 7.68-16.8 4.16-42.72-26.24-107.84-33.92-158.4-18.56-6.4 1.92-13.12-1.6-15.04-7.84-1.92-6.4 1.6-13.12 7.84-15.04 57.92-17.6 129.6-9.12 178.24 21.12 5.76 3.52 7.68 11.04 4.16 16.16zm1.76-44.8c-51.2-30.4-135.68-33.28-184.64-18.4-7.68 2.24-15.68-2.08-17.92-9.6-2.24-7.68 2.08-15.68 9.6-17.92 56.32-17.12 149.76-13.76 209.28 21.28 6.72 4 8.96 12.64 4.96 19.36-4 6.72-12.64 8.96-19.36 4.96z" fill="#fff"/>
</svg>
